<?xml version="1.0" encoding="UTF-8"?>
<svg id="Camada_1" data-name="Camada 1" xmlns="http://www.w3.org/2000/svg" viewBox="0 0 799.13 675">
  <defs>
    <style>
      .cls-1 {
        fill: #fff;
      }
    </style>
  </defs>
  <g>
    <path class="cls-1" d="m89.63,174c-46.59,0-84.5-37.91-84.5-84.5S43.04,5,89.63,5h620c46.59,0,84.5,37.91,84.5,84.5s-37.91,84.5-84.5,84.5H89.63Z"/>
    <path d="m709.63,10c43.84,0,79.5,35.66,79.5,79.5s-35.66,79.5-79.5,79.5H89.63c-43.84,0-79.5-35.66-79.5-79.5S45.79,10,89.63,10h620m0-10H89.63C40.2,0,.13,40.07.13,89.5H.13c0,49.43,40.07,89.5,89.5,89.5h620c49.43,0,89.5-40.07,89.5-89.5h0c0-49.43-40.07-89.5-89.5-89.5h0Z"/>
  </g>
  <g>
    <path class="cls-1" d="m89.5,421.51c-46.59,0-84.5-37.91-84.5-84.5s37.91-84.5,84.5-84.5h620c46.59,0,84.5,37.91,84.5,84.5s-37.91,84.5-84.5,84.5H89.5Z"/>
    <path d="m709.5,257.51c43.84,0,79.5,35.66,79.5,79.5s-35.66,79.5-79.5,79.5H89.5c-43.84,0-79.5-35.66-79.5-79.5s35.66-79.5,79.5-79.5h620m0-10H89.5C40.07,247.51,0,287.58,0,337.01h0c0,49.43,40.07,89.5,89.5,89.5h620c49.43,0,89.5-40.07,89.5-89.5h0c0-49.43-40.07-89.5-89.5-89.5h0Z"/>
  </g>
  <g>
    <path class="cls-1" d="m89.63,670c-46.59,0-84.5-37.91-84.5-84.5s37.91-84.5,84.5-84.5h620c46.59,0,84.5,37.91,84.5,84.5s-37.91,84.5-84.5,84.5H89.63Z"/>
    <path d="m709.63,506c43.84,0,79.5,35.66,79.5,79.5s-35.66,79.5-79.5,79.5H89.63c-43.84,0-79.5-35.66-79.5-79.5s35.66-79.5,79.5-79.5h620m0-10H89.63C40.2,496,.13,536.07.13,585.5H.13c0,49.43,40.07,89.5,89.5,89.5h620c49.43,0,89.5-40.07,89.5-89.5h0c0-49.43-40.07-89.5-89.5-89.5h0Z"/>
  </g>
</svg>