<?xml version="1.0" encoding="UTF-8"?>
<svg id="Camada_1" data-name="Camada 1" xmlns="http://www.w3.org/2000/svg" viewBox="0 0 602.74 1387.21">
  <defs>
    <style>
      .cls-1 {
        stroke-width: 12px;
      }

      .cls-1, .cls-2 {
        fill: #fff;
      }

      .cls-1, .cls-2, .cls-3, .cls-4, .cls-5 {
        stroke: #000;
        stroke-miterlimit: 10;
      }

      .cls-2, .cls-3, .cls-5 {
        stroke-width: 6px;
      }

      .cls-3, .cls-4 {
        fill: none;
      }

      .cls-4 {
        stroke-width: 3px;
      }
    </style>
  </defs>
  <rect class="cls-2" x="162.4" y="515.59" width="275.13" height="415.94"/>
  <ellipse class="cls-1" cx="300.78" cy="323.23" rx="251.67" ry="241.38"/>
  <ellipse class="cls-5" cx="220.79" cy="291.81" rx="42.85" ry="108.55"/>
  <ellipse class="cls-5" cx="377.9" cy="291.81" rx="42.85" ry="108.55"/>
  <path class="cls-4" d="m270.84,80.23c-14.16-43.65-57.1-67.52-93.87-58.26-27.13,6.83-48.54,31.1-55.03,61.5"/>
  <polygon class="cls-2" points="437.53 931.53 437.53 1070.72 332.34 1070.72 332.34 1035.11 267.6 1035.11 267.6 1070.72 162.4 1070.72 162.4 931.53 437.53 931.53"/>
  <path class="cls-4" d="m421.35.93c-48.55,61.5-54.51,12.72-91.28,21.98-27.13,6.83-48.54,31.1-55.03,61.5"/>
  <line class="cls-3" x1="222.28" y1="1070.72" x2="222.28" y2="1326.43"/>
  <line class="cls-3" x1="377.65" y1="1070.72" x2="377.65" y2="1326.43"/>
  <line class="cls-3" x1="160.78" y1="530.16" x2="47.49" y2="892.69"/>
  <line class="cls-3" x1="223.09" y1="1323.19" x2="193.96" y2="1384.69"/>
  <line class="cls-3" x1="376.99" y1="1324.43" x2="406.12" y2="1385.93"/>
  <rect x="164.02" y="614.32" width="271.9" height="51.79"/>
  <rect x="164.02" y="721.13" width="271.9" height="51.79"/>
  <rect x="164.02" y="831.19" width="271.9" height="51.79"/>
  <line class="cls-4" x1="49.11" y1="891.07" x2=".56" y2="910.49"/>
  <line class="cls-4" x1="50.09" y1="887.43" x2="17.85" y2="928.6"/>
  <line class="cls-4" x1="46.79" y1="888.61" x2="72.94" y2="933.9"/>
  <line class="cls-4" x1="46.92" y1="888.34" x2="46.92" y2="940.64"/>
  <line class="cls-4" x1="553.63" y1="888.36" x2="602.18" y2="907.78"/>
  <line class="cls-4" x1="550.26" y1="887.32" x2="580.8" y2="929.77"/>
  <line class="cls-4" x1="549.47" y1="885.9" x2="523.33" y2="931.19"/>
  <line class="cls-4" x1="549.35" y1="885.63" x2="549.35" y2="937.93"/>
  <line class="cls-3" x1="437.53" y1="526.73" x2="550.83" y2="889.26"/>
</svg>